<svg xmlns="http://www.w3.org/2000/svg" width="964.583" height="659.544" viewBox="0 0 964.583 659.544">
  <g id="Group_5510" data-name="Group 5510" transform="translate(18425.674 20937.4)">
    <path id="Path_120349" data-name="Path 120349" d="M829,841.38c-1.54,1.51-3.47.89-5.23.89H574.5c-10.6,0-16.31-5.64-16.33-16.36-.06-28.79-.13-57.59.08-86.38,0-4.91-1.58-6.47-6.32-6.17a34.06,34.06,0,0,0-10.66,2.22c-21.95,8.88-44.57-2-53-22.64-8.22-20.05,2.71-44.35,21.9-52a40.14,40.14,0,0,1,32.91.82c.59.28,1.19.56,1.81.79,11.27,4.3,13.3,3,13.31-8.76v-81.9c0-13.58,4.68-18.25,18.19-18.25q90.17,0,180.33.07c7.78,0,15.54,1.13,23.36,1.1,2.38,0,5.1-2.76,6.63-.54,1,1.41-.52,4.4-.58,6.7a66.281,66.281,0,0,0,3.21,23.48c1.55,4.48-2.51,7.56-4.08,11.25-.5,1.18-1.64,2.08-2.31,3.21-1.14,1.93-1.28,3.46,1.69,3.67,10.85.79,19.83,4.82,28.15,12.42,7.57,6.91,17.89,9.73,28.35,10.53,3.8.28,5.42,1.08,5.06,5.88-1.26,16.92,1.16,33.85.77,50.8-.05,2.16.22,4.35-1,6.31-2.52-.12-2-2.23-2.35-3.69-1-4.57-2.59-8.93-3.9-13.4-.35-1.2-.65-2.65-2.41-2.85-1.53,1.87-.62,3.82-.07,5.63a43,43,0,0,1,1.34,8.86c.16,1.86.38,4-1.86,4.61-2.48.71-3-1.59-3.61-3.21a112.417,112.417,0,0,1-4.37-14.82c-.71-3.12-2.18-5.92-3.27-8.87-.41-1.11-1.13-2.26-2.54-1.89s-1.39,1.72-1.44,2.87a15.5,15.5,0,0,0,.69,4.42c.61,2.52,2.36,6.11-.51,7.21-3.57,1.38-3.9-3.08-5.28-5.26s-2-4.92-3.28-7.26c-.6-1.11-1-2.52-3.23-2.52-.83,5,1.47,9.29,3,13.68,1.25,3.6,2.83,7.1,3.57,10.87.27,1.42.81,3.22-1.11,3.85-1.71.56-2.75-.83-3.52-2.14-1.36-2.3-2.07-4.9-3.2-7.31-.89-1.92-1.64-4-4.29-5-.51,5.27,1.47,9.84,3,14.45,1.59,4.89,3.86,9.54,5.15,14.55a11.881,11.881,0,0,1,.65,4.9c-.45,2.62-1.89,3.32-4.29,2.18-2.93-1.39-4.17-4.1-5.55-6.79-1.25-2.42-2.51-6.42-5.71-4.91s0,4.61.67,6.88c1.89,6.37,5.54,12,7.76,18.32A19.59,19.59,0,0,0,816.32,733c7.29,3.38,10.87,8.68,11,16.69.08,3.45,1.15,6.87,1.09,10.39,0,1.36-.05,2.75-1.59,3.33-1.27.49-2.24-.32-3.14-1-2.06-1.67-3.67-3.87-6.09-5.12-7.32-5.41-13.79-11.88-21.53-16.77-5.07-3.2-10.29-5.23-16.37-4.72a9.62,9.62,0,0,1-5.35-.75c-3.36-3.46-4-8-4.51-12.41-.68-6.44-1.6-12.87-1.32-19.4,1-23.27-4.12-45.6-10.65-67.7-5.78-19.6-19.69-31.37-37.81-39.14-10.24-4.39-20.67-7-32-6.41-9.12.46-16.9,3.41-23.37,9.68-3.4,3.29-6.71,6.31-11.7,7-3.11.46-5.17,2.85-6.81,5.47a47.429,47.429,0,0,0-6.13,14.16,127.322,127.322,0,0,0-3,36.1c1.1,20.61,5.11,40.93,5.5,61.58.15,8-1.79,15.15-7.53,21-.44.44-1.43,1-1.08,1.43,4.81,5.21-.18,10.27-.14,15.39-1.45,3-4.35,4.05-7.22,4.85-5.42,1.51-9.22,4.87-12.46,9.37-10.77,15-16.44,32.2-22.13,49.43-.83,2.52-1.56,5.08-2.29,7.64-1.6,5.59-.9,6.55,4.75,6.69H785.69a33.841,33.841,0,0,1,3.49,0c4.56.48,6.67-1.78,7.44-6.07.65-3.6,1.17-7.22,1.94-10.8.9-4.19,2.42-4.64,5.64-1.78a39.093,39.093,0,0,1,3.3,3.73c1.43,1.64,3.11,2.46,5.3,1.77a4.36,4.36,0,0,1,4.16.83C821.33,831.79,826.18,835.72,829,841.38Z" transform="translate(-18445.75 -21144.15)" fill="#e0e0e0"/>
    <path id="Path_120350" data-name="Path 120350" d="M348.38,789.38c-.28,2.6.88,4.82,1.87,7.11,3.4,7.82,2.31,10.58-5.52,13.92-8.64,3.68-17.44,7-25.66,11.66-2.6,1.47-5.27,2.8-7.46,4.88-7.83,7.43-17.67,10.16-27.94,11.25-10.48,1.1-20,5.83-30.39,7.17-9.56,1.24-19.09,1.84-28.52-1.17-9.08-2.9-12.48-10.52-15-18.42a239.531,239.531,0,0,1-8.46-36.6,29.062,29.062,0,0,0-.73-2.85,7.6,7.6,0,0,1-1.72-4c-2.57-26-4.5-52-5.05-78.11-.37-17.76,12.7-39.16,32.34-47,10.68-4.24,22-5.28,33.18-6.63,2.91-.35,4.67,1.31,6.2,3.39,7.89,9.61,14.53,20.18,22.8,29.5,6.5,7.31,13.12,14.52,21.08,20.32,7.63,5.57,11.75,5.5,19.35.06s13.07-12.65,18.47-20c2.26-3.08,4.46-6.19,6.64-9.32a3.83,3.83,0,0,1,4.41-1.55c16,5.21,31.79,10.86,45,21.89,6.31,5.28,8.78,12.84,11.68,20,8.47,21,14.68,42.73,20.58,64.57.17,1.64.27,3.27-.7,4.73a2.46,2.46,0,0,1-2.22.54c-2.08-.6-4.22-1.35-6.35-1-7.71,1.31-13.34-2.64-18.87-7.06-8.56-6.85-18-12.48-26.76-19-9.84-7.34-20.28-7.31-31.21-4-5.4,1.66-10.84,3.16-16.18,5-1.61-1.27-2.82-2.26-5.5-1.76-21.61,4-43.09,8.7-64.68,12.79-3.73.71-5.24-.73-6.05-4C255.46,760,255,754,253.47,749.23c1.21,4.43,1.95,9.93,3.07,15.35,1.19,5.79,1.28,6.09-4.69,8.24A43.479,43.479,0,0,0,234.45,785c-3.58,3.91-5.48,8.69-6.95,13.66-.37,1.24-.72,2.89.78,3.54s2.39-.88,3-2c3.19-5.62,5.46-11.72,9.56-16.88,6-7.55,13.25-12.36,23.11-13.93,19.74-3.15,39.25-7.63,58.87-11.44.48-.09.94-.33,1.43-.42,7.17-1.28,7.11-1.2,10.5,5.46,1.24,2.44,1.62,5.43,4.17,7.12C343.72,775.71,346.38,782.38,348.38,789.38Z" transform="translate(-18445.75 -21144.15)" fill="#f8cd46"/>
    <path id="Path_120351" data-name="Path 120351" d="M735.18,491.55c5,8.58,4.93,17.79,2.52,26.92a62.56,62.56,0,0,1-8.62,19.31c-5.33,7.87-12.51,9.64-21.13,8.91-16.18-1.36-27.68-10.11-36.34-23.17a10.1,10.1,0,0,0-6.35-4.74c-1.12-1.1-2.52-.6-3.79-.61-21.25-.07-42.49.55-63.73.77-16.26.17-32.54-.12-48.81-.31-4.37,0-5.48-1.72-4.3-6.08.61-2.24,1.82-4.3,2.15-6.62.53-3.74-1.47-5.69-4.4-3.71-4.38,3-9.22,2.25-13.86,3.17-.32.06-.75.24-1,.09-6.13-4-12.53-.73-18.8-.78-2.48,0-4.71.32-6.43,2a12.81,12.81,0,0,1-9,3.63c-3.64.17-6.72,1.17-7.93,5.4-1.26,4.4-4.7,2.28-7.46,1.94-2.68-.65-4.15-2.75-5.67-4.77a15.72,15.72,0,0,1-2.49-9.43c.21-20.44-.22-40.88.24-61.32a6.579,6.579,0,0,1,.88-2.43c9.51-8.45,18.63-17.4,29.65-24,4.21-2.53,9.07-3.1,13.66-4.46,5.4-1.6,10.81-3.28,16.33-4.39,5.33-1.07,9.65-3.33,12.47-8.12a6.54,6.54,0,0,1,2.45-2.42c3.59-2.18,6.29-.82,8.61,2.14,6.38,8.12,13.43,15.66,20.46,23.2,2.36,2.53,2,5.48,2.4,8.38a53.514,53.514,0,0,1,.19,9.47c-.15,3.66-1.84,4.51-4.72,2.25a150.561,150.561,0,0,1-18.68-17.2,67.2,67.2,0,0,1-7.65-9.72c7.21,10.75,16.81,19.18,26.71,27.3.93.76,2.13,2,3.52,1.21s.83-2.39.87-3.66c.32-10.27.39-10.41,9.11-4.89,4,2.51,7.66,1.1,11.49.33a25.467,25.467,0,0,0,2.77-1.12c5.25-1.64,5.91-1.26,6.94,4a3.08,3.08,0,0,0,1.46,2.37c5-7.63,6.08-16,6.42-25.57-.54,4,.16,7.11-.83,10.23s-1.51,6.1-2.37,9.13c-.44,1.56-1.12,2.94-2.91,2.89-2.1-.06-1.87-1.93-2.2-3.34-.56-2.45.79-5.56-3.22-6.79-1.45-.44-1-3.36-.49-5.11a92.514,92.514,0,0,0,3.7-18.49c.15-1.76.76-3.32,3-3.11,6.56,6.33,15.47,5.3,23.37,7.33,8.89,2.3,17.92,4.13,26.48,7.49,5.17,2,8.84,6.32,12.81,10,6.34,5.82,12.23,12.13,18.3,18.24,1.4,1.42,2.68,3,5,2.73,1.16,8.45-1.8,16.43-2.9,24.63a5.33,5.33,0,0,1-2.68,4c-10.82,6.24-15.14,16.52-17.09,26,1.07-7.23,5-15.32,11.56-22,1.29-1.31,2.76-3.6,4.91-2.73s1.54,3.43,1.65,5.36a27.349,27.349,0,0,1-1.41,9.33,46.4,46.4,0,0,0-1.6,13.32,14.719,14.719,0,0,0,3.69,10c6,6.93,13.83,8.22,22.27,6.92,8.65-1.33,13.77-6.8,16-15.08a55.6,55.6,0,0,0,1.31-7.36C732.13,495.78,732.61,493.13,735.18,491.55Z" transform="translate(-18445.75 -21144.15)" fill="#f8cd46"/>
    <path id="Path_120352" data-name="Path 120352" d="M586,236.4c22.23-8.73,50.11-3.25,64.17,14.23,4.76,5.91,10.2,9.13,16.45,12.09a25.61,25.61,0,0,1,8.07,5.72c3.36,3.69,3.36,7.39-.52,10.64-1.86,1.56-.77,2.1.13,3,1.77,1.75,3.76,3.3,5.38,5.18,4,4.68,3.91,9.67-.53,14a3.19,3.19,0,0,0-.69,4.36c3.87,7.57,5.66,15.82,7.86,23.93,1.57,5.82-.68,12.2-5.79,15.06a6.7,6.7,0,0,0-3.38,4.55,8,8,0,0,1-.28,1.46c-4.31,7.87-8.61,15.74-13,23.54a5.39,5.39,0,0,1-2.69,2.16c-4.51,1.63-6.95,5.1-9.28,9.06a12.51,12.51,0,0,1-10.61,6.44c-2.5.12-4.54,1.7-6.53,3.15a187.49,187.49,0,0,1-24.29,0,.46.46,0,0,1-.41-.27c-3.77-2.33-4-3.58-1.46-8.29,4.94-3.36,10-6.43,14.34-10.74A39.15,39.15,0,0,0,634.73,347c0-8-.17-16,.06-24,.19-6.77-2.73-12.24-6.55-17.37a13.22,13.22,0,0,0-8.74-5.34c-2.13-.34-4.26-.77-6.35-1.32-4.72-1.24-7.73-4-9-9-2.33-9.29-2.51-9.26-12.07-9.73a32.781,32.781,0,0,1-7.35-1.32c-6.16-1.74-11.46,1-13.07,7.31a25.31,25.31,0,0,1-8.89,14.06,6.13,6.13,0,0,0-2.39,5.6c.15,5.61,1.92,11.2.26,16.86-.52,1.77-.86,3.54-2.13,5-2.78,3.15-5,3-6.59-.92-1.46-3.53-3.83-4.75-7.4-4.48s-5.75,2.15-6.85,5.55c-2.27,7,.19,13.48,6.82,16.66,3.42,1.64,5.26,4,5.07,7.75-.22,4.45.78,9-.81,13.35-4.95,3.73-9.78,2.3-14.12-.88s-6.32-7.72-5-13.24c-1.36,9.95,5.68,17.27,15.6,16,1.56-.2,2.92-.65,3.86,1.06.62,5.93,2.27,11.95-1.51,17.5-7.27,6.44-20.25,5.39-25.2-3.53-1.24-2.24-3.44-2.37-5.56-2.74-6.27-1.09-12.32-2.76-17.65-6.44-8.5-5.87-10.29-12.71-5.33-21.79,1.78-3.28.56-4.17-2.51-4.31a46.589,46.589,0,0,1-6.47-.32c-5.15-1-7.19-4.42-5.59-9.43,1.28-4,1.81-7.44-2.89-10.15-3.55-2.05-3.71-6.05-2.58-9.85a64.89,64.89,0,0,1,9-18.28,10.67,10.67,0,0,0,1.8-8.82,41.85,41.85,0,0,1-.65-13.33c.89-6.52,5.32-11.79,8-17.69,1.13-2.45,4.53-3.2,7.32-3.85,5.66-1.32,11.31-2.69,17.06-3.57,1.37-.12,2.85.2,3.94-1h0c1.84-1.11,3.11-2.95,5-4a17.29,17.29,0,0,1,10.22-1.16c4.14.69,10-3.22,11.23-6.36s-.36-2.9-2.38-3c-3.11-.16-6.29.24-9.18-1.55-5.74-3.57-6.4-10.42-.64-13.7,7.17-4.08,14.41-7.91,21.23-12.64,5.24-3.64,12.62-1.58,17.59,3.55,1.33,1.37,2,3.25,4.76,1.4,1.7-1.15,2.94,1.8,4.56,2.68,4.81,2.62,6.41,6.92,5.25,12.19-.27,1.2-1.47,2.46.93,2.92.52.1.45.76-.68,1.38-1.42.78-2.91,1.43-4.37,2.14-1.19,2.35-3.46,2.23-5.58,2.4a22.047,22.047,0,0,0-10.36,3c-1.54,1-3.44,2.55-2.32,4.36,1.49,2.42,3.06,0,4.48-.79C575.13,240.89,579.84,237.09,586,236.4Z" transform="translate(-18445.75 -21144.15)" fill="#1b2d37"/>
    <path id="Path_120353" data-name="Path 120353" d="M265.48,655.31c-2.34-3.55-5.56-3.48-9.41-2.94-13,1.81-26.15,3-37.48,10.6-14.74,9.93-23.4,23.38-23.33,41.51a656.236,656.236,0,0,0,4.88,74c.3,2.6.27,5.24.39,7.85-4.81-2.14-10.19-.08-15.13-2.35s-7.71-5.23-7.91-10.83c-.36-10.11-.94-20.32-.7-30.34,1.64-70,0-140.08.63-210.11.06-6.84,4-10.9,9.32-13.9-.18-1.57-1.37-1.62-2.19-2-5.27-2.25-8.08-6.2-8.09-11.93q0-43.95-.07-87.88c0-3.23,1-4.17,4.26-4.35,6.69-.38,12.68,1.72,18.89,3.65,8.12,2.52,16.45,2.76,24.62-.36,4-1.55,8-3.18,11.28-6.17,1.1.11,2.22.2,2.2,1.74a6.9,6.9,0,0,1-3.53,3.37c-11.76,6.41-18.32,16.8-21.43,29.32-4.13,16.63-6.51,33.63-9.74,50.45-1.16,6-2.22,12.11-3.25,18.18-.35,2-.42,4.42-3,5.3a26.986,26.986,0,0,0-3.25.12c-.66.1.37.85,0,.3-.16-.23-.06-.36.31-.39,28.06-2,56.16-.45,84.23-.89,2,0,4.12-.11,5,2.34.23,1.78-.67,3.21-1.54,4.61-8.83,14.21-11.15,29.56-8.11,45.85a16.86,16.86,0,0,1,.35,5.44c-.35,2.43-2.12,3.53-4.07,4.65-5.19,3-7.55,8.3-6.57,14.38.79,4.83,4.94,8.91,10.38,10.19,7.7,1.81,8.37,2.62,8.43,10.32,0,3.65.15,7.32,0,11-.25,5.09.4,9.93,2.87,14.44,0,.69-.1,1.33-.92,1.47-1.79.33-3.84-1.57-5.4.78-2.06,3.1-5.29,5.56-5.24,9.79a2.75,2.75,0,0,1-.68,1.21C270.08,654.07,267,651.35,265.48,655.31Z" transform="translate(-18445.75 -21144.15)" fill="#e0e0e0"/>
    <path id="Path_120354" data-name="Path 120354" d="M434.21,779.47c-6.07-20.9-12-41.84-19.76-62.22-4.62-12.08-10.13-23.18-22.78-28.84-3.64-1.63-7-3.85-10.67-5.39-7.05-2.94-14.21-5.61-21.34-8.34-1.87-.72-3.82-1.4-5.37.7-6.85-2.55-9.49-8.38-11.52-14.71.22-2.82,1.25-5.48,1.44-8.32.18-2.56,2-4.12,4.25-5.11,2-.86,4-1.56,6-2.41,10.13-4.32,15.61-12.27,17.07-22.84,1.11-8,2.09-16.14.59-24.32-.8-4.41-.27-9-.26-13.45,0-12.8-1-25.55-2.2-38.27-.52-5.74-3.33-10.79-6.64-15.42a14.91,14.91,0,0,1-3.19-9.72,2.54,2.54,0,0,1,.76-1.54c2.27-1.51,4.84-1,7.29-1q39.945,0,79.89-.07c1.7,0,3.64.86,5.09-.77-2.07-6.92-3.64-14-6.34-20.66a9.35,9.35,0,0,1-.38-5.32c.88-3.24,3.88-4.42,6.25-6.11,2.79-2,2.93-3.85,1-6.62-10.76-15.75-21.88-31.24-33.67-46.24-1.12-1.43-3.17-2.81-1.08-5,4.57,1.75,8.82,4.41,13.9,4.75a3,3,0,0,1,2.34,1.73c2.42,5.59,6.56,10.54,7.06,16.8.31,4,3,6.17,5,8.88,1.24,1.62,2.29.21,3.25-.67,2.11-1.94,4.48-3,7.24-1.58s3.43,4.13,3.09,6.82c-1.44,11.58,1,23,1.06,34.52,0,3.31.3,6.69-1.38,9.73s-1.41,5.34,2.22,6.58a1.26,1.26,0,0,1,.78,1.61c-3.68,1.13-5.24,2.22-1.19,5.51,5.92,4.82,6.62,8.82,4,15.91-1.56,4.21-1.13,8.64-.56,12.82a95.128,95.128,0,0,1,.73,11.89c.26,18.1,1.59,36.18,1.1,54.3-.12,4.3-.59,5.89-6.07,6.13-6.2.26-10.79-2.7-15.82-4.48-6.91-2.43-13.14-2.78-20.15-.55-6.12,1.94-12.16,3.16-17.78,7-8.36,5.68-11.71,13.58-13.18,22.8a36.88,36.88,0,0,0,8.47,29.88c5.69,6.77,14.63,10.12,23.91,11.83s17.68-1,26.33-3c.32-.07.65-.15,1-.25,10.94-3.33,13.29-1.73,13.29,9.19,0,24.47-.51,48.95.1,73.4.33,13-6.07,16.06-16.63,16.3-13.15.29-26.31.07-39.46.07H353.34c.5-2.77,2.87-2.56,4.68-2.55,19.73.12,39.47-.9,59.18.52,4.95.36,10-.61,14.85.83h2.29c6.05-.41,12.09-.22,18.15-.24-4.18,0-8.39-.27-12.54.08C436.38,784.25,434.52,783.06,434.21,779.47Z" transform="translate(-18445.75 -21144.15)" fill="#e0e0e0"/>
    <path id="Path_120355" data-name="Path 120355" d="M463.26,516.64c-6.62-2.45-6.57-2.43-3.64-9.8,1.39-3.5,1-7.32.5-10.81-1.14-7.39.4-14.91-2-22.31-1-3,1.64-6.73,1.26-10.43-.26-2.51-.57-4.84-3.34-5.35a4.7,4.7,0,0,0-5.62,3c-1.4,3.69-3.09,2.38-4.31.14-2.14-3.93-6-6.49-5.78-12.33.17-4.54-3.83-9.25-6.05-13.85a3.31,3.31,0,0,0-3.25-2c-5.52,1.15-8.77-3.07-12.94-5.11-2.93.11-4.44-2.16-6-4a44,44,0,0,0-24.13-14.59c-11.59-2.79-23.24-5.67-34.51-9.72-3.49-1.3-4.53-4-4.59-7.48,0-3.21.88-6.24,1.37-9.34.42-2.7,2.65-3.56,5-4.3C369.32,374,376.69,364,376.8,349.17c.09-11,0-21.94,0-32.91a31.67,31.67,0,0,1,.86-8.89c1.69-5.77,4.88-10.9,7.18-16.41.12-.31.24-.75.48-.86,5.43-2.28,8.46-7.59,13.3-10.53,1.83-1.11,3.83-1.94,3.42-4.24-.63-3.58,1.36-4.78,4.14-5.63a6.049,6.049,0,0,0,.92-.36c1.85-1,4.66-1.4,4.09-4.21-.53-2.59-3.21-2.62-5.32-2.73a52.512,52.512,0,0,1-11.3-1.86c-2.07-.59-4.49-1.17-5.19-3.44-.81-2.63,2-3.52,3.3-5.06a2.62,2.62,0,0,1,2.58-1.18c.59,3,3,2.08,4.8,2.09,18.41,0,36.83.12,55.24-.06,5.36-.06,9.95.51,12.21,6.21.16.41,1.13.5,1.72.73l.62.61c1.12,2,.78,4.22.78,6.36,0,19.8.16,39.61-.06,59.41-.08,7.62-1.08,15.22-1.06,22.88,0,4.51-3.14,6.25-8.19,4.55s-10.06-3.47-15.11-5.15c-3-1-6-2.15-9.19-2.16-16,0-27.55,7.79-35.29,21.18-7,12.09-4.8,24.15,1.4,36.07,7.92,15.21,36,23.81,51.55,16a22.18,22.18,0,0,1,10.66-2.18c3.46.09,5.28,1.7,5.26,5.2-.05,6.32.41,12.64-.34,19v61.55c0,2.62.39,5.37-1.91,7.41C468,513.7,466.15,515.6,463.26,516.64Z" transform="translate(-18445.75 -21144.15)" fill="#e0e0e0"/>
    <path id="Path_120356" data-name="Path 120356" d="M546.58,385.73c3.06-3,1.56-6.81,1.74-10.29.13-2.46-.16-4.93-.27-7.4a2.21,2.21,0,0,1,0-2.43c0-4.82-.11-9.65.07-14.46.1-2.79-.85-4.61-3.63-5-8.08-1.1-11.24-13.09-7.53-20.57,2.16-4.37,6.13-5.32,10.56-4.88,3.69.37,5.57,2.54,5.82,6.25.21,3,1.56,2.87,3.44,1.12a8.23,8.23,0,0,0,2.57-5.26,41.655,41.655,0,0,0,.17-10.41c-.78-5.87-2.38-12,5-15.62a9.56,9.56,0,0,0,4.72-7.37c.4-5.82,4.62-8.84,7.79-12.7,1-1.25,1.8-2.15,3.66-1,4.38,2.76,9.37,3.07,14.42,3.11,6.41,0,8.79,1.52,9.62,7.68,1,7.85,5.43,10.91,12.75,12.06A22.14,22.14,0,0,1,636,320c.31,12.44,1.83,25-1.05,37.28-3.34,14.24-12.46,23.87-25.78,29.64-2.6,1.71-5.4,1.25-8.2.74-8.19-1.5-15.84-4.64-24.13-8.31,7.19,10.05,17.17,13.12,27.81,15,1.23.21,2.71-.55,3.62.9a4.54,4.54,0,0,0,1.8,5.06c-3.43,2-1.82,5.49-2.1,8.19-.64,6.24-4,11.92-3.78,18.21,1.72.9,2.27-1.52,4.05-.81v7.8c0,.92-.36,2.3.94,2.51,1.54.25,1.65-1.18,2-2.3,1.64-5.74,3.59-11.4,3.06-17.53-.15-1.73-.2-3.62,2.41-5.21-.18,4.16.08,7.87-.6,11.4-1,5.18-1.74,10.47-3.79,15.4a10.62,10.62,0,0,1-1.74,2.94c-.83,1-1.76,2.24-3.32,1.55-1.35-.6-1.16-2.05-1-3.09,1.1-5.59-3-5.81-5.51-3.9-3,2.25-6.36,1.29-9.36,2.78-2.6,1.29-4.91-2-7.31-3.28-1.83-1-3.2-2.78-5.85-3.4v11.05c0,2.54-.7,4.23-3.47,2.21-12.39-9.07-23.12-19.72-31-33.14a137.68,137.68,0,0,0,31.83,30.87c1.85-6.28.53-12.06-.45-17.28-.75-3.94-5.41-7.28-8.66-10.56a158.755,158.755,0,0,1-13.35-15.4c-1.75-2.27-3.75-3.93-6.84-2.26C546.11,393.22,549.57,389.57,546.58,385.73Z" transform="translate(-18445.75 -21144.15)" fill="#c27362"/>
    <path id="Path_120357" data-name="Path 120357" d="M546.58,385.73c4.66,1.73,2.08,5.21,1.76,8-.13,1.15-1.35,2.18-2.08,3.26-4.42,7.85-11.74,10.57-20.09,12.58-12.3,3-25.32,4.71-35,14.28-5.92,5.85-12.77,10.56-19.09,15.93-2.53-.44-1.74-2.5-1.77-4-.13-4.82-.11-9.64,0-14.46,0-2.52-1-3.55-3.52-3.62a24.71,24.71,0,0,0-11.12,2C438.75,427.34,412,421,402.3,403c-9-16.79-7.73-32.13,7.53-46.45,12.13-11.37,26.24-13.31,41.5-6.88a77.335,77.335,0,0,0,9.8,3.61c2.81.77,5.82,1.69,8.31-1,.6-10,.65-19.94.83-29.91V265.36c0-1.79.39-3.68-.9-5.27l-.1-.26c3.6-6,8.51-9.62,15.87-8.92.85,1.93-.8,2.59-1.82,3.59-3.67,3.65-6.19,7.79-5.54,12.68.16-11.16,9.17-18.62,20.49-16.26,5,1,9.95.17,14.91.6,1.34.12,3.39-1.26,4,1.32-6.16,1.39-12.33,2.7-18.46,4.2-5.86,1.43-7.9,3.73-7.94,9.56,0,1.87-1.09,2.16-2,3-1.92,1.68-3.85,3.61-3.7,6.23a141.673,141.673,0,0,0,1.86,17.1,4.09,4.09,0,0,1-.88,3.88,68.66,68.66,0,0,0-9.86,17.81c-2.92,7.47-1.92,9.22,4.66,13.89,2.33,1.66,1.46,5.78.3,8.43-2.44,5.57-1.08,8.35,5.08,9,3.13.31,6.32-.27,9.42.67,2.38.72,2.87,1.49,1.05,3.71-7.15,8.77-5.54,16.67,4.17,22.71,5.67,3.53,11.85,5.08,18.39,5.64,1.39.12,2.88-.29,3.87,1.48,5,9.11,11.87,11.27,21.31,6.87C545.15,386.58,545.86,386.13,546.58,385.73Z" transform="translate(-18445.75 -21144.15)" fill="#ebebeb"/>
    <path id="Path_120358" data-name="Path 120358" d="M237.67,410.88a2.56,2.56,0,0,1-2.23-1.1C240.6,404,245.55,398.33,247,390c3.36-19.41-6.86-33.43-24.62-38.06a34.21,34.21,0,0,0-24.58,2.23c-5.71,2.82-11.86,2.66-18,2.65-2.3,0-3.25-.88-3.34-3.21-.2-5.63.6-11.29-.46-16.9-.34-1.79,1-1.72,2.16-1.9,12.43-1.9,22.56-8.22,31.45-16.71,4.8-4.58,11-4.06,16.75-5.09,4.29-.78,6-2.18,3-5.67-5.79-6.85-5.44-14-3.11-22.11,2.67-9.29.94-18.75-1.29-28-.72-3-.54-4.12,2.92-4.11,14.92,0,29.85-1.22,44.74.83,1.18,5.72-2.74,8.83-6.36,11.9-2.61,2.22-4.8,3.78-.33,6.41,2.4,1.4,1.21,3.82.29,5.8s-.46,2.69,1.46,4.2c4.62,3.66,10.37,6.76,10.18,14.25-.12,5,2.57,10,1,15.19-5.4,3.86-7.78,8.8-6.13,15.52,1.31,5.31,3.83,7.94,9.32,9,6,1.14,7.71,2.8,7.8,8.91.22,13.8.13,27.61,0,41.41a8.56,8.56,0,0,1-2.31,6.39c-3,2.52-6.84,3.22-10.39,4.44-11.25,3.86-22.49,7.71-33.41,12.46C241.88,410.71,239.94,412.1,237.67,410.88Z" transform="translate(-18445.75 -21144.15)" fill="#e1e1e1"/>
    <path id="Path_120359" data-name="Path 120359" d="M818.13,756.36c3.81.84,5,5.14,8.94,6.65.55-7.66-1.43-14.83-2.63-22-.59-3.54-5.11-4.5-8-6.26a29.78,29.78,0,0,1-13.67-17.4c-1.82-5.69-5.18-11-7.18-16.75-.7-2-3.15-4.5.35-5.82,2.81-1,5.43,0,7.09,3,1.53,2.72,1.92,6.12,4.44,8.19,1,.86,2.31,2.67,3.75,1.84,1.65-.95,1-3.08.54-4.56-1.51-4.7-3.08-9.39-5-14a79.736,79.736,0,0,1-4.41-16.23c-.21-1.14-.71-2.39.52-3.15s2.12.27,3.05,1c3.56,2.71,4.3,7,6,10.74.77,1.75,1.08,3.75,3.72,5-.52-5.27-2.31-9.47-3.88-13.76a113.919,113.919,0,0,1-3.66-12.28c-.4-1.66-.6-3.93,1.69-4.68s3,1.38,3.9,2.93c2.55,4.63,3.7,10,7.17,14.45,1.79-1.62,1.11-3.31.57-5-.78-2.37-1.6-4.7-1.44-7.27.12-2.07.08-4.23,2.83-4.43,2.39-.17,3.53,1.41,4.17,3.51,2.41,7.9,4.78,15.81,7.35,23.66.37,1.13,0,3.69,2.25,3.08s.45-2.52.55-3.86c.32-4.09-1.36-7.79-2-11.69-.31-1.82-.94-4.63,1.48-5.2s3.88,1.76,4.3,3.92c1.12,5.84,4.35,11.14,4.33,17.27,0,.41.5.82.77,1.23-.91,6.39,2,12.28,2.34,18.6.57,10.14,1.35,20.45,4.66,30.24,4.74,14,10.19,27.83,14.21,42,4.17,14.72,10.36,28.77,13.8,43.7,1.2,5.17,4.27,9.62,5.37,14.85,1.56,7.43,1.06,14.51-2.94,21-3.37,5.5-12.49,8.29-19.85,7.17-12.33-1.88-20.15-10-27.6-18.85-2-2.36-3.52-5.25-6.93-5.94-4.38-3.07-7.1-7.77-11-11.27-1.23-1.09-2-2.66-3.9-2.76-.53-2.13,1.33-2.88,2.44-3.94q7.37-7.1,15.22-13.67c3.23-2.7,4.45-5.68,3.66-9.6-1.91-9.46-3.77-18.93-5.82-28.37-.59-2.67-2.69-4-4.31-5.92C822.7,762.85,818.13,761.3,818.13,756.36Z" transform="translate(-18445.75 -21144.15)" fill="#febf9d"/>
    <path id="Path_120360" data-name="Path 120360" d="M735.18,491.55c-2.08,3.89-2.14,8.28-2.93,12.46-3.09,16.3-15.3,21-28.81,18-15.09-3.38-18.29-12.62-15.82-27.11,1-6,3.38-11.81,2.1-18.81-10.34,7.42-14.34,18-16.62,30.15-1.34-4.81,1.11-15.77,4.55-20.39s6.69-9.08,11.81-11.9c4-2.2,2.84-6.59,3.35-9.88.85-5.49,3.26-10.87,2-16.64-.08-.39.78-1,1.2-1.48l7.24-46a10.37,10.37,0,0,0-3.42-9.85,26.72,26.72,0,0,1-8.76-20.28c-.05-5.74-1.27-11.46-1.87-17.2-.16-1.54-1-3.42,1-4.44,2.21-1.14,3.39.57,4.55,1.95a6.749,6.749,0,0,1,1.41,2.55,26.156,26.156,0,0,1,1,5.84c.08,3,1.2,6.92,3.62,6.74,2.92-.22,2.52-4.33,2.5-7.09,0-8.14-.13-16.29-.2-24.44a21.447,21.447,0,0,1,.65-6.45c7.56,6.45,3.17,16.16,6.14,24,2.59-1.62,2.11-3.76,2.12-5.67V321.16c0-1.81-.13-4.18,2.3-4.28,2.73-.1,2.64,2.35,2.8,4.37.58,6.95.73,14,2.81,21.52,2.38-4.3,1.92-8.09,2-11.8a17,17,0,0,1,.19-4.47c.67-2.2.41-5.76,3.81-5.48s2.17,3.58,2.2,5.65c.11,8.15,0,16.3.06,24.45,0,1.38-1.29,3.86,1.25,4,2,.11,1.86-2.29,2.44-3.82a22.682,22.682,0,0,0,1-7.83,11.348,11.348,0,0,1,.08-3c.77-2.66-.11-7.31,3.47-7.14,3.07.15,1.29,4.38,1.42,6.73.87,16.53-2.68,32.54-6.29,48.5a47.426,47.426,0,0,0-1,12.44c.53,13.43,0,26.88,1.32,40.3,1.37,14.39,1.36,28.85,1.16,43.29C733,487.31,735.24,489,735.18,491.55Z" transform="translate(-18445.75 -21144.15)" fill="#c27362"/>
    <path id="Path_120361" data-name="Path 120361" d="M278.55,310.63c-1-6.21-2.07-12.41-2.86-18.65-.34-2.73-1-4.35-4.2-3.91-2.16.29-4.21.13-2.85-3.15.67-1.62-.49-1.25-1.59-1.19-4.18.19-4.49-2.1-2.76-5.06s3.46-5.29-1.6-6.85c-3-.91-3.21-3-.23-4.86,4.89-3.09,8.81-7,10.13-12.93,4.33-10,11.48-15.38,22.84-14.36,7.29.65,8.22-.09,12.66-6.2,6.5-8.92,16.07-10.39,26.14-10.34,15,.06,27.63,5.28,38,16.45,7.74,8.38,11.55,8.52,20.86,2.29,2.47-1.65,3.23-.61,3.47,1.75a13.58,13.58,0,0,1-1.24,7.24c-1.38,2.33-3.62,3.8-5.94,5.67a24.41,24.41,0,0,0,11.12,3.91c2.13.26,4.3.29,6.43.58,2.74.37,6.09.25,6.5,4s-2.82,4.52-5.36,5.61A34.923,34.923,0,0,1,402.8,272c2,6.25.94,8.09-5.42,9.12-1.58.25-1.72.56-1.64,2.06.23,4-1.88,6-5.8,5.22-2.48-.48-2.79,1.14-3.46,2.58-2.43,5.25-4.82,10.52-7.22,15.77-3.41-1-2.89-4.05-3.17-6.45a90.711,90.711,0,0,1-.17-12.45c.07-3.28-.95-5.31-4.47-6-11.21-2.12-20-8.31-26.28-17.54-9.52-13.95-23.33-11.07-34.87-5-3.7,1.94-4.65,5.34-4.49,9.29.51,12.39-.8,24.53-4.91,36.32a40.321,40.321,0,0,1-4.9,10.27c-1.51,2.11-3.82,3.49-5.85,1.24-2.8-3.12-6.17-4.23-10.07-4.6a2.12,2.12,0,0,1-1.53-1.2Z" transform="translate(-18445.75 -21144.15)" fill="#1b2d36"/>
    <path id="Path_120362" data-name="Path 120362" d="M432.09,784.15c-23.35.06-46.71.08-70.06.25-2.88,0-5.95-1-8.65,1l-5,4c-4.33-5.76-5.72-13-9.85-18.9-2.41-3.77-5.42-7.29-5.3-12.16.29-.79.61-1.51,1.56-1.76,9.29-2.43,18.34-6,28-6.66A18.37,18.37,0,0,1,373.33,752c14.75,8.36,28.24,18.54,41.71,28.74,2,1.48,3.9,1.45,6,1.66C424.78,782.75,428.8,781.24,432.09,784.15Z" transform="translate(-18445.75 -21144.15)" fill="#fcbf9d"/>
    <path id="Path_120363" data-name="Path 120363" d="M478,517.7c3.22-.05,6.68.89,6.6-4.64-.05-3.64,4.05-4,6.55-4,4.73-.06,8.62-1.29,11.8-4.76.33-.36.84-.55,1.21-.88,3.4-3,7.49,3.09,11-1.06,3.94-4.62,7-.46,10.06,1.65a2.86,2.86,0,0,0,3.27,0,6.19,6.19,0,0,1,5.68-.58c2.24.87,4.2-.1,5.75-1.91a6,6,0,0,1,7.31-1.42c2.7,1.21,1.33,3.85,1.2,6.14-.16,2.69-1.78,4.61-2.57,6.92-1.14,3.33-.37,4.61,3.21,4.57,10.14-.09,20.29,0,30.43,0h80.12c1.91,0,4-.71,5.65,1q-58.66.33-117.33.63c-8.54,0-8.49,0-10.08,8.39a60.118,60.118,0,0,1-2.05,7.66c-1.78,5.41-6.12,3.8-10.22,4.27-3.28.38-5.33,7.28-10.16,2.06a4.3,4.3,0,0,0-2.25-.79c-5.74-1.09-7.85-3.46-8.13-9.24-.16-3.37.21-6.94-5.32-5.57-2,.5-4.19-.7-4.81-3.34-.65-2.79-2.72-3.35-5.32-3.41C485.65,519.36,481.54,520.1,478,517.7Z" transform="translate(-18445.75 -21144.15)" fill="#c07260"/>
    <path id="Path_120364" data-name="Path 120364" d="M953.06,413.72c-3.62.79-6.92,1.3-10.09,2.26-3.32,1-4.44-.46-5.07-3.39-2.63-12.18-3.36-9.95,7.19-12,7.31-1.44,7.29-1.52,5.58-8.61-2.14-8.85-.39-10.95,9.08-11.29,2.34-.08,2.86,1.57,3.28,3,.8,2.86,1.19,5.83,1.84,8.73.72,3.18,2.07,5.34,5.82,3.28a7.659,7.659,0,0,1,2.37-.66c10-1.85,9.86-1.83,11.49,8.23.32,2,0,2.78-1.75,3.26-1.12.31-2.2.74-3.33,1-9.22,2-10.73,4.18-8.2,13.65,1.14,4.25,0,5.7-4.11,6.27-7.57,1.05-7.26,1.12-9.49-6.36C956.88,418.44,957.39,414.13,953.06,413.72Z" transform="translate(-18445.75 -21144.15)" fill="#fc735c"/>
    <path id="Path_120365" data-name="Path 120365" d="M43.66,726c-2.66.24-2.55-1.54-3.2-2.84-1.64-3.34-.28-8.81-4.26-9.95-3-.87-7,1.08-10.41,2.29-2.51.9-3.23.28-3.56-2.11a12.13,12.13,0,0,0-1.49-4.2c-1.5-2.59-.3-3.63,2.05-4.29,1.11-.32,2.17-.83,3.28-1.16,8.53-2.6,8.19-.66,5.41-10.76-.52-1.91-2.81-4.42-.71-5.78,2.52-1.62,5.89-2,8.93-2.75.69-.17,1,.66,1.23,1.32.51,1.57,1.13,3.11,1.56,4.7,2.09,7.86,2.07,7.87,9.61,5.59,6.92-2.09,8.66-.89,9.56,6.41.24,1.9-.64,2.48-2.29,3.11-3.53,1.35-8.64.83-10.29,4.16s1.81,7.07,2.25,10.84c.11,1,.85,2.32-.28,2.62A26.149,26.149,0,0,0,43.66,726Z" transform="translate(-18445.75 -21144.15)" fill="#fb715d"/>
    <path id="Path_120366" data-name="Path 120366" d="M608.25,395.17c-9.89,2-31.41-7.3-33.65-18.2,11.32,4.59,22.11,10.27,34.55,9.91-1.48,2.81-1.91,5.5.89,7.82Z" transform="translate(-18445.75 -21144.15)" fill="#7d4334"/>
    <path id="Path_120367" data-name="Path 120367" d="M468.34,510.53c2-11.39.71-22.87.93-34.3.22-11.8.08-23.61.1-35.41a1.17,1.17,0,0,1,1.87-.07v53.86c0,6.12-.35,12.26,1,18.32C470.84,512.32,470.38,510.13,468.34,510.53Z" transform="translate(-18445.75 -21144.15)" fill="#b7786e"/>
    <path id="Path_120368" data-name="Path 120368" d="M198.05,275.88c0,4.33-2.27,6.5-6,6.71s-6.18-2-6.52-5.91a6.09,6.09,0,0,1,6.26-6.67C195.78,270.07,197.73,272.29,198.05,275.88Z" transform="translate(-18445.75 -21144.15)" fill="#253137"/>
    <path id="Path_120369" data-name="Path 120369" d="M146,276c-.21,4.27-2.41,6.35-6.24,6.57A6,6,0,0,1,133.4,276c.2-4,2.57-5.95,6.4-6C143.87,270,145.47,272.7,146,276Z" transform="translate(-18445.75 -21144.15)" fill="#263232"/>
    <path id="Path_120370" data-name="Path 120370" d="M159.2,274.71c.51-3,2.84-5,6.71-4.68s5.84,3,5.65,6.75c-.19,4-2.73,5.89-6.57,5.84S158.79,279.51,159.2,274.71Z" transform="translate(-18445.75 -21144.15)" fill="#263132"/>
    <path id="Path_120371" data-name="Path 120371" d="M828.06,565.56c-.29,4-2,6.55-6,6.67s-6.35-2-6.54-5.91,2.13-6.3,6-6.49S827.51,561.88,828.06,565.56Z" transform="translate(-18445.75 -21144.15)" fill="#272e31"/>
    <path id="Path_120372" data-name="Path 120372" d="M847.63,572.27c-3.41-.21-5.57-2.32-5.71-6.28a6,6,0,0,1,6.33-6.23c3.84.24,6.21,2.31,6.31,6.32C854.64,569.7,851.85,572.31,847.63,572.27Z" transform="translate(-18445.75 -21144.15)" fill="#222f34"/>
    <path id="Path_120373" data-name="Path 120373" d="M880.32,565.94c-.42,4.15-2.6,6.32-6.54,6.3s-6.21-2.39-6.2-6.29,2.55-6.17,6.4-6.12S880,562.21,880.32,565.94Z" transform="translate(-18445.75 -21144.15)" fill="#262d30"/>
    <path id="Path_120374" data-name="Path 120374" d="M586,236.4c-5.78,3.48-12.25,5.78-17.45,10.24-1.35,1.16-2.79,1.88-4.34.2-1.4-1.52-1-3.08-.05-4.56,3.14-4.88,8.31-5.88,13.44-6.27a24.051,24.051,0,0,0,6.19-1.17C584.11,236,585.21,236,586,236.4Z" transform="translate(-18445.75 -21144.15)" fill="#c37060"/>
    <path id="Path_120375" data-name="Path 120375" d="M517.14,252.84c-9.51-1.72-19.11-1-28.63-.52-4.55.22-9.85,8.26-10.2,13.53-.13,1.95,0,3.91-.29,5.85-2.81-8.69,1.3-15,7.1-20.79,7.9-.58,14.79-3.22,19.62-10.26.3,3-1.94,3.83-3.14,5.38-.87,1.12-2.8,1.81-2.19,3.57s2.56,1.08,3.93,1.12c5.64.15,11.28.18,16.91.26C520.24,253.3,518.75,253.17,517.14,252.84Z" transform="translate(-18445.75 -21144.15)" fill="#a4a5a6"/>
    <path id="Path_120376" data-name="Path 120376" d="M610.44,395h24.29A73.618,73.618,0,0,1,610.44,395Z" transform="translate(-18445.75 -21144.15)" fill="#c27362"/>
    <path id="Path_120377" data-name="Path 120377" d="M525.28,247c-1.55,1.49-2.65,3.54-5,4C521.62,249.27,522.75,247.26,525.28,247Z" transform="translate(-18445.75 -21144.15)" fill="#a4a5a6"/>
    <path id="Path_120378" data-name="Path 120378" d="M818.13,756.36c2,3.34,5,5.87,7.87,8.2a14.13,14.13,0,0,1,5.49,9.45c1.44,8.46,3.54,16.82,5.28,25.23,1,4.9.06,8.55-4.56,11.91-6.53,4.73-12.13,10.74-18.12,16.2-2.8,3.19-5,2.53-7.36-.74-1.67-2.36-3.17-5-5.92-6.72-1.16,5.78-2.44,11.21-3.31,16.7-.6,3.71-2.41,4.83-6.07,4.79-16.3-.17-32.6-.09-48.91-.09H593.3c-6.78,0-7.48-.71-5.56-7,5.42-18,11-35.89,20.55-52.25,2.08-3.56,4.64-6.85,7-10.24,3.1-4.39,8.1-5.6,12.74-7.31,1.91-.7,3.71-1.39,5-3,4.11-3.32,9.29-4.32,14-6.23,7.07-2.87,14.08-5.94,21.35-8.28,4-1.28,5.47-3.65,5.33-7.77-.1-3-1.06-6.35,1.54-9,3,1.38,2,4.15,2.22,6.48-1.31,7.9,1.89,13.13,8.93,16.94,8.55,4.63,16.57,3.68,24.57-.81,2.59-1.45,4.89-3.42,7.46-5,1.48-.88,2.87-2.44,4.93-1.36a5.419,5.419,0,0,1,1,3.29c.51,16.1-1.26,31.88-6.3,46.53a31.28,31.28,0,0,0,3.1-6.37c.85-2.53,1.79-5,2.71-7.52.5-1.39,1.06-3.14,2.85-3s2.24,1.78,2.56,3.28a70.007,70.007,0,0,1,1.31,8.39c.32,3.42,2.07,5.27,5.59,4.75,8.77-1.3,17.33-3.36,25-8.05,4.64-2.83,6.62-7.3,7.26-12.49.16-1.32.07-2.67.3-4,.2-1.14.31-2.52,1.62-2.83s2.07.83,2.7,1.83c1.24,2,1.83,4.25,3.19,6.25,4.15-11.47,1.53-22.63-.88-33.83-.57-2.63-2.4-5.31-.34-8.08,10.44-1.84,19.2,1.94,27.09,8.3C807.59,747.31,812.82,751.88,818.13,756.36Z" transform="translate(-18445.75 -21144.15)" fill="#fe715c"/>
    <path id="Path_120379" data-name="Path 120379" d="M775.1,734.66c1.41,7.67,3.82,15.13,4.54,23a50.71,50.71,0,0,1-3,23l-6-12.2c-.69,4.28-.45,7.67-1.42,10.93a17,17,0,0,1-9.32,11.07,78.737,78.737,0,0,1-22.85,6.87c-6.75,1-6.93.65-7.88-6A93.022,93.022,0,0,0,727,780c-3.69,7.26-5.12,15.6-11.56,21.47,6.32-17.89,8.19-36.32,7.65-55.08-1.3-7.94-.33-15.84.81-23.67,1.54-10.57,4-20.94,9.89-30.1,1.38-2.13,1.41-2.11,5.71-3.37.77-6,7.08-3.36,9.92-6.4,3.22-3.46,3.49-7.38,3.07-11.6a7.93,7.93,0,0,0-3.11-6c-3.13-2.26-6.08-1.29-7.17,2.42a19.869,19.869,0,0,1-3.57,7.61c-2.34,2.77-5.24,4.07-8.85,3.33s-5.48-3.12-6.46-6.3A50.539,50.539,0,0,1,721.55,662c-.44-4.73-2.25-8.62-6.31-11.34a19.059,19.059,0,0,1-4.46-4c-3.25-4.16-7.56-5.68-12.67-5.76-2,0-4.92.46-5.26-2.43-.3-2.44,2.2-3.09,4.13-3.53,3.41-.78,3.52-2.08,1.41-4.69-6.24-7.71-13.2-14.57-22.18-19-7.83-3.84-12.07-2.69-17.21,4.33-4.61,6.27-7.9,13.26-8.79,21-2.39,20.84-3.19,41.78.11,62.59,2.17,13.63,10,23.27,22.86,28.69a6.49,6.49,0,0,1,2.1,1.32,1.69,1.69,0,0,1,.24,1.51,1.709,1.709,0,0,0-.07.49c2.75,12.21-3.31,17.58-14.5,20.36-7.79,1.94-15.11,5.78-22.67,8.68-1.65.64-3.24,1.75-5.19,1.28-.12-4.54,1.48-8.82,2.2-13.28-1.87-1.26-3.5,1.18-5.19.11-.48-.79.12-1.16.65-1.5,7.21-4.49,9.89-11.37,10.18-19.45.51-14.21-1.84-28.2-3.37-42.25-2.09-19.22-3.86-38.44.68-57.58a63.158,63.158,0,0,1,5.22-14c2.62-5.15,6.4-9,12.67-9.08a4.08,4.08,0,0,0,3.27-1.82c13.17-15.45,30.05-17,48.26-12.32,11.71,3,22.31,8.72,32.22,15.5,9.47,6.47,14.8,16.25,18.39,26.7,7,20.36,11.47,41.3,11.84,63,.17,10.64-.15,21.32,2.24,31.8A21.19,21.19,0,0,0,775.1,734.66Z" transform="translate(-18445.75 -21144.15)" fill="#1b2e35"/>
    <path id="Path_120380" data-name="Path 120380" d="M343.39,661.53c.51.41,1.23.71,1.48,1.24,2.07,4.32,3.5,9.1,8.81,10.83.36.12.41,1.16.61,1.78-6.48,10.91-14,21-24.05,28.9-8.79,6.91-13.72,6.83-22.7-.07C299.19,697.8,292.2,690,285.47,682c-7.14-8.53-13.71-17.48-20-26.67.25-1.18-1.78-2.69.06-3.49,2.52-1.09,4.82,0,6.81,1.74,5.14,2.56,8.68,7.05,12.69,10.89,5.5,5.26,10.9,10.6,16.84,15.38,2.39,1.91,4.32,2.35,6-.73a6.54,6.54,0,0,1,.94-1.16c5.76-6.65,7.08-6.56,12.28.31,1,1.33,1.27,4.14,4.16,3.07,2.23-3.35,3-7.3,4.64-10.88C332.51,664.68,337.26,662,343.39,661.53Z" transform="translate(-18445.75 -21144.15)" fill="#fdfdfd"/>
    <path id="Path_120381" data-name="Path 120381" d="M333.23,758.32q2.64,6.07,5.3,12.16c-.3.77-.6,1.92-1.38.35-1.69-3.42-3.38-6.85-4.86-10.36-.89-2.12-1.71-3.08-4.4-2.51-13.1,2.8-26.19,5.77-39.43,7.73-10.16,1.5-20,4.42-30.13,6-5.84.92-10.37,5.61-14.43,10-4.78,5.21-7.63,11.57-10.62,17.86-1.17,2.44-2.34,6.18-5.66,4.92-3.7-1.4-2.07-5-1.13-7.86,4.25-12.69,12.91-21,25.51-25.22,3.72-1.23,5-2.65,3.8-6.74-1.78-6.17-2.76-12.58-4.08-18.88a3.14,3.14,0,0,1,.76-3.22c2.44,5.36,2.51,11,3.9,16.24.17.63,0,1.34.14,2,1.33,8.13,2.45,8.58,10.63,7.21,13.54-2.27,26.82-5.75,40.37-8,6.79-1.13,13.6-2.61,20.35-4.15C330.77,755.24,332.2,755.8,333.23,758.32Z" transform="translate(-18445.75 -21144.15)" fill="#ffc100"/>
    <path id="Path_120382" data-name="Path 120382" d="M434.21,779.47c1.13,3.12,3.15,4.37,6.61,4.06a50.9,50.9,0,0,1,12.37.57H434.38C434.33,782.56,434.27,781,434.21,779.47Z" transform="translate(-18445.75 -21144.15)" fill="#fcbf9d"/>
    <path id="Path_120383" data-name="Path 120383" d="M471.24,440.75l-1.87.07c0-6-.21-12-.08-18,.06-2.94-.77-4.21-3.93-4.13a22.891,22.891,0,0,0-9.66,2c-16.5,8.12-45.43.51-54.72-18-8.7-17.37-6.46-34.56,9.48-47.89,7.86-6.57,16.74-11,27.32-9.83,7.62.87,14.66,4.11,21.86,6.64a27.112,27.112,0,0,0,2.79,1.07c4.7,1.07,5.72.09,5.94-4.83,1.28-29.25.86-58.51,1-87.77,3,.43,1.75,2.8,1.77,4.33.12,10.14.08,20.27.09,30.41a19.39,19.39,0,0,0,0,9.15v7.82a9.08,9.08,0,0,0,0,6.17v3.83c-1,8.72-.17,17.47-.49,26.2-.07,1.95.54,4-.51,5.83-6.58,2.87-12.49-.07-18-2.75-26.4-12.79-51.21,6.86-54.56,29.74-1.64,11.26,7,27.88,16.9,33.65,14.27,8.34,28.92,9.87,44.21,3.12,3.19-1.4,6.57-.69,9.86-.6,2.47.06,2.65,2.07,2.65,4v14c0,1.62-.46,3.36.8,4.79Z" transform="translate(-18445.75 -21144.15)" fill="#b1b1b1"/>
    <path id="Path_120384" data-name="Path 120384" d="M548.08,365.61v2.43c-11.83,2.2-20.84-4.63-19.67-14.94a7.18,7.18,0,0,1,3.94-6.2c-2.72,5.87-3,11.1,1.15,15.68S542.62,367.42,548.08,365.61Z" transform="translate(-18445.75 -21144.15)" fill="#67787f"/>
    <path id="Path_120385" data-name="Path 120385" d="M237.67,410.88c15.94-6.9,32.32-12.59,48.8-18,2.37-1.78,4-.07,5.71,1.23a130.259,130.259,0,0,0,16.56,11c8.92,5.09,18.53,6.05,28.44,4.86a13.27,13.27,0,0,0,11.33-8.59c1.12-2.76,2.78-4,5.74-2.58L398.81,411c3.17.87,5.41,3.15,7.67,5.31,3.94,3.78,7.73,7.71,11.58,11.58,7.9,10.62,15.86,21.18,23.66,31.86,4.59,6.29,8.86,12.81,13.39,19.14,2,2.77,2.31,4.8-1.13,6.75-2.42,1.37-4.47,3.39-6.68,5.13-2,4.12-6,6.12-9.4,8.61-8.66,6.32-16.57,13.69-26.12,18.8-5.94,1.09-11.93.42-17.89.5-11.12.15-22.25-.06-33.36.1-2.82.44-4.66-1.3-6.55-3-13.71-11.9-45.63-18.6-65.3.05-1.56,1.49-3.18,3-5.64,2.71-5.81-.83-11.64-.27-17.45-.35-2.32,0-3.73-.3-3.71-3.19.1-14.59.05-29.18,0-43.78,0,14.18-.08,28.36,0,42.54,0,3-.49,4.49-4,4.46-19.15-.15-38.31-.06-57.46-.08-.95,0-2,.27-2.74-.72,2.57-19.6,6.94-38.88,10.34-58.32,1.9-10.82,3.82-21.51,10-31.06C223,420.34,230,415.29,237.67,410.88Z" transform="translate(-18445.75 -21144.15)" fill="#fe725c"/>
    <path id="Path_120386" data-name="Path 120386" d="M343.39,661.53c-2.78,1.41-5.54,2.86-8.35,4.21-2.65,1.27-3.33,3.78-4.43,6.2-1.59,3.52-1.15,8.12-5.28,10.34-3.31-2.59-5.15-6.36-7.71-9.56-6.16-8.15-14.61-13.78-22.17-20.4-3.88-3.4-8.91-5.65-11.18-10.74-3.18-3.56-4.07-7.75-3.87-12.43.22-5.15-.17-10.32.06-15.47.2-4.61-1-7.12-6.28-7.25-6.36-.17-10.29-4.51-12.47-10-2-5.07.88-12.93,4.69-16.5,1.89-1.76,5.78-.4,6.14-4.18q7.89.54,9.82,8.2a30.012,30.012,0,0,0,.8,3.4c1.46,3.82,4.64,4.43,7.19,1.22a22.65,22.65,0,0,0,4.45-11.5c1.52-12.36,2.66-24.61-2-36.81-3.93-10.3,2.17-18.8,13.36-19.91a26.84,26.84,0,0,1,12.22,1.8c6.4,2.41,13.05,3.83,19.7,5.34,5.6,1.27,10.19.07,14-4.13,2.3-2.53,4.9-3.89,8.36-2.77.93,7.49,6.89,12.53,9.38,19.37,1.89,5.21,1.73,10.48,2.28,15.64a273.84,273.84,0,0,1,1.16,30.4c-.05,7.17,1.22,14.24,1,21.37-.27,8.26-.66,16.49-3.91,24.33-3.4,8.18-10,12.82-17.81,15.52-4.87,1.68-7.94,3.5-7.43,9.21C345.24,658,344,659.81,343.39,661.53Z" transform="translate(-18445.75 -21144.15)" fill="#febf9d"/>
    <path id="Path_120387" data-name="Path 120387" d="M360.45,520.61c-.5.56.76,3.36-1.17,1.69-2.63-2.29-3.8-.88-5.11.89-4.91,6.62-11.51,7.26-18.77,5.3-6.74-1.82-13.46-3.71-20.12-5.81a18.5,18.5,0,0,0-9.84-.77c-11.37,2.73-15,8.72-11.11,18.75,5.53,14.32,3.89,28.74.23,43.12a14,14,0,0,1-4.14,7.28c-3.37,3-7.8,2.14-8.48-2.18-.89-5.72-1.91-10.67-8.64-11.89-.32-.06-.51-.81-.76-1.23-1.66-10.8-2.88-21.57-.65-32.52,1.72-8.48,5.72-15.77,10.43-22.8.79-.87.83-2.24,2-2.86,10.54-10,22.83-16.13,37.59-14.71,13.08,1.26,26,3.71,35.64,14.08a6.139,6.139,0,0,0,1.72.92c1.29.61.41,2,1,2.84Z" transform="translate(-18445.75 -21144.15)" fill="#1b2e35"/>
    <path id="Path_120388" data-name="Path 120388" d="M284.27,641.58c9.75,8.15,19.54,16.25,29.21,24.49,2.09,1.79,4.37,3.62,5.1,6.55-5.12-1.28-7.35,2.81-9.88,5.72s-4.43,3.61-7.76.88c-10.12-8.3-19.26-17.6-28.53-26.78-2.21-4.08,2-5.69,3.31-8.37C277.57,640.3,280.15,638,284.27,641.58Z" transform="translate(-18445.75 -21144.15)" fill="#fdfdfb"/>
    <path id="Path_120389" data-name="Path 120389" d="M272.41,652.44c4.44,2.15,7.35,6.1,10.8,9.37,6,5.68,12,11.35,18.36,16.62,2.37,2,3.93,2.53,5.92-.38,1.28-1.89,3.41-3.19,4.71-5.07,2.12-3,4.12-2.48,6.38-.36,2.7,2.91,5.36,5.85,6.76,9.67-.4,2.82-1.56,2-2.72.51a56.379,56.379,0,0,1-4.94-6.83c-1.53-2.74-2.91-2.8-4.81-.54-.75.88-1.61,1.68-2.39,2.53-5.53,6-5.76,6.3-12.1.75-9.09-7.94-17.75-16.36-26-25.15Z" transform="translate(-18445.75 -21144.15)" fill="#c3c0bd"/>
    <path id="Path_120390" data-name="Path 120390" d="M284.29,517.58c-.51,1-.72,2.32-2,2.86-.52-2.2-2.32-1.48-3.66-1.48-28.38-.05-56.76,0-85.13-.12-1.58,0-3.19,1.06-5.48-.42,3.48-1.51,6.76,0,9.67-1,20,0,39.92,0,59.87.2,3.61,0,4-1.66,4-4.59-.12-13.46-.08-26.93-.1-40.39a8.91,8.91,0,0,1,.94-4.83c0,14.6.23,29.2-.13,43.79-.12,4.9,1.3,6.38,6.07,6C273.62,517.26,279,517.57,284.29,517.58Z" transform="translate(-18445.75 -21144.15)" fill="#934b45"/>
    <path id="Path_120391" data-name="Path 120391" d="M413.24,516.66q17-13,34.06-25.94c-1,4.46,1.93,7.93,2.95,11.88,1.29,4.94,2.66,9.85,4,14.78-.85,1.33-2.23,1.25-3.53,1.25q-16.81.07-33.61,0C415.58,518.61,413.63,519.06,413.24,516.66Z" transform="translate(-18445.75 -21144.15)" fill="#f8bea0"/>
    <path id="Path_120392" data-name="Path 120392" d="M413.24,516.66c.69.92,1.72.89,2.71.88l38.3-.16c1.21.31,2.71-.3,3.59,1.09-.23,1.49-1.36,1.15-2.31,1.15q-45.36-.06-90.72-.11c-1.59,0-3.39-.51-4.55,1.2-1.21-.64-.87-1.83-1-2.84q20.36-.15,40.69-.29C404.39,517.55,408.86,517.81,413.24,516.66Z" transform="translate(-18445.75 -21144.15)" fill="#a18179"/>
    <path id="Path_120393" data-name="Path 120393" d="M354.25,398.82c-1.85,0-3.42,0-4.19,2.39-2.39,7.57-8.41,9.94-15.67,10.61-17,1.59-30.29-6.48-42.8-16.5-1.56-1.26-2.84-2.82-5.12-2.46a10.88,10.88,0,0,0,1.93-6.48c-.12-13.75,0-27.5-.08-41.26,0-6.07-.86-6.75-6.67-7.29-9-.84-11.34-7.87-11-16.8.17-5.26,3.74-8.12,7.95-10.4,1.82.14,3.63.4,5.45.38a5.59,5.59,0,0,1,5.36,2.84c2.48,3.94,3.89,3.89,6.21-.25,4.29-7.65,6.22-16.06,7.8-24.61a89.921,89.921,0,0,0,.93-22.87,6.62,6.62,0,0,1,2.95-6.32,35.16,35.16,0,0,1,23.87-7.09c5,.26,8.9,3.37,12.12,7.19,4,4.69,7.43,9.77,12.46,13.55A34.82,34.82,0,0,0,373,280.59c3.34.35,4.17,1.76,4.21,4.71.06,5.49.26,11,.58,16.47.1,1.7-.53,3.77,1.46,5-1.9,9.36-.49,18.82-.9,28.22-.35,7.91,1,15.91-1.18,23.72-3.14,11.37-10.73,18.19-22,21.12-2.31.6-3.9,1.39-4,4.18a54.836,54.836,0,0,1-.89,7.85C349.78,395.27,351.27,397.43,354.25,398.82Z" transform="translate(-18445.75 -21144.15)" fill="#fec09c"/>
    <path id="Path_120394" data-name="Path 120394" d="M592.1,348.78c0-6.15,2.13-7.69,7.91-5.82a11.239,11.239,0,0,1,2.29.94c2.57,1.51,7.09,1.23,5.89,6.28-1.11,4.62-4.69,7.29-9,6.67A8,8,0,0,1,592.1,348.78Z" transform="translate(-18445.75 -21144.15)" fill="#794237"/>
    <path id="Path_120395" data-name="Path 120395" d="M603.9,307.62c4,5.49,6.22,11.83,9,17.88.62,1.35,1,2.79,1.64,4.15,3.15,7.06,1.89,8.85-6.29,8.83.13-.25.19-.61.37-.68,6.22-2.26,5.94-2.14,3.33-8.56C609.1,322.13,605.33,315.32,603.9,307.62Z" transform="translate(-18445.75 -21144.15)" fill="#633e34"/>
    <path id="Path_120396" data-name="Path 120396" d="M572.83,297.12c3.41-4.07,10.49-6,14.62-3.9,1,.52,2.38,1.08.73,2.43C587.52,296.19,574.11,297.43,572.83,297.12Z" transform="translate(-18445.75 -21144.15)" fill="#372e2d"/>
    <path id="Path_120397" data-name="Path 120397" d="M624.27,321.76c-.06,2.71-1.19,4-3.63,4-2.15,0-3.45-1.06-3.51-3.25-.07-2.38,1.21-3.67,3.6-3.71a3.22,3.22,0,0,1,3.54,2.96Z" transform="translate(-18445.75 -21144.15)" fill="#35312d"/>
    <path id="Path_120398" data-name="Path 120398" d="M586.08,318.8c2.18.11,3.65,1.18,3.8,3.23.18,2.38-1.4,3.64-3.65,3.73a3.3,3.3,0,0,1-3.73-3.16C582.34,320.23,583.92,319.1,586.08,318.8Z" transform="translate(-18445.75 -21144.15)" fill="#37302c"/>
    <path id="Path_120399" data-name="Path 120399" d="M591.22,310c-5-1.39-9.62-1.82-15.27.79C580.79,304.33,587.75,304.31,591.22,310Z" transform="translate(-18445.75 -21144.15)" fill="#42312a"/>
    <path id="Path_120400" data-name="Path 120400" d="M626.59,307c-4.2.07-8.32-1.5-12.56,2.14C617.17,302.69,622,302.16,626.59,307Z" transform="translate(-18445.75 -21144.15)" fill="#4c2e29"/>
    <path id="Path_120401" data-name="Path 120401" d="M470.22,353.83c0-8.94,0-17.87.11-26.81,0-1.76-.54-3.67.89-5.22v27.9C471.26,351.14,471.68,352.74,470.22,353.83Z" transform="translate(-18445.75 -21144.15)" fill="#e0e0e0"/>
    <path id="Path_120402" data-name="Path 120402" d="M471.21,304a10.26,10.26,0,0,1,0-9.15Z" transform="translate(-18445.75 -21144.15)" fill="#e0e0e0"/>
    <path id="Path_120403" data-name="Path 120403" d="M471.21,318a5.09,5.09,0,0,1,0-6.17Z" transform="translate(-18445.75 -21144.15)" fill="#e0e0e0"/>
    <path id="Path_120404" data-name="Path 120404" d="M674.79,729.63c-12.9-3.52-20.46-12.44-24.57-24.65-3.07-9.11-3.49-18.62-3.36-28.12.22-15.43-.6-31,3.26-46.14a42.539,42.539,0,0,1,11.51-20.09,9.49,9.49,0,0,1,10.5-2.48c13.19,4.55,22.19,14.25,30.21,25.08,1.47,2,.48,2.46-1.53,2.6-2.69.2-5.64-.2-7.9,2.62,3.61,2,7.4.75,10.87,1.6,2.35.57,4.41,1.09,5.84,3.23a9.751,9.751,0,0,0,3.07,3.24c8.74,4.69,10.74,12.75,11.17,21.67a15.242,15.242,0,0,0,.77,3.9c2.09,6.43,8.06,7.77,12.81,3,2-2,2.62-4.52,3.22-7.14.43-1.89-1.12-4.78,2.05-5.41,3-.6,6.08-.42,8.36,2,3.95,4.26,4.06,9.39,2.52,14.52-1.35,4.55-4.66,7.31-9.57,7.39-4.46.08-5,2.28-3.46,6-1.91-1.1-.3-3.24-1.74-4.4-11.08,13.53-13.51,29.79-14.8,46.42-.3,4,.24,8-.95,11.89-7,4.5-13.34,10.24-22.1,11.64-7.29,1.17-20.26-4-24-10.36-1.87-3.17-.74-6.79-.77-10.21,1.59-1.63,3.7-1.2,5.64-1.49,10.25-1.54,20.59-2.9,27.81-12-7.41,2.38-14.31,6-22.09,6.53C683.27,730.77,679,731.43,674.79,729.63Z" transform="translate(-18445.75 -21144.15)" fill="#febe9e"/>
    <path id="Path_120405" data-name="Path 120405" d="M674.79,729.63a70,70,0,0,0,37.42-9c.52,3.81-2.22,5.21-4.05,7-5.54,5.52-12.68,7.38-20.09,8.75a61.318,61.318,0,0,1-11.85,1c-.48-2.24.52-4.63-.7-6.78A6.3,6.3,0,0,1,674.79,729.63Z" transform="translate(-18445.75 -21144.15)" fill="#f89c6e"/>
    <path id="Path_120406" data-name="Path 120406" d="M346.86,675.45c-6.22,5.25-6.22,5.25-12.53-1.53-2.8,2.39-1.94,6.93-6.07,9.94.85-5.31,3.39-8.81,4.89-12.64a1.28,1.28,0,0,1,2.38.06C337.92,676.07,341,678.86,346.86,675.45Z" transform="translate(-18445.75 -21144.15)" fill="#c3c0bd"/>
    <path id="Path_120407" data-name="Path 120407" d="M344.28,653.21c.35,3.64-1.63,4.62-4.61,4.24-10.73-1.36-20.24-5.11-27-14.13-.69-.93-1.79-1.84-.83-3s1.85-.08,2.67.33c8.18,4.1,16.55,7.58,25.81,8.42C342.79,649.27,345.1,650,344.28,653.21Z" transform="translate(-18445.75 -21144.15)" fill="#f89b6d"/>
    <path id="Path_120408" data-name="Path 120408" d="M338.61,565.7c5,9.21,8.34,19.06,11.17,29.07.67,2.37-1,3.73-3.33,3.94-1.63.15-3.29,0-5.12,0,.49-1.68,1.6-1.24,2.33-1.25,4,0,4.25-2,3.14-5.23-2.77-8.17-5.3-16.43-7.91-24.66A11.919,11.919,0,0,1,338.61,565.7Z" transform="translate(-18445.75 -21144.15)" fill="#76594a"/>
    <path id="Path_120409" data-name="Path 120409" d="M323.67,552.63c-4.81-.3-8.6-.53-12.38-.79-.92-.07-2.21.24-2.39-1.1s1.12-1.46,2-1.8a15.57,15.57,0,0,1,12.51.33c1.26.56,3.32.91,2.74,2.8C325.64,553.65,323.85,552.61,323.67,552.63Z" transform="translate(-18445.75 -21144.15)" fill="#352e2b"/>
    <path id="Path_120410" data-name="Path 120410" d="M359,553.75c-1.82,0-3.63.06-5.44,0-1-.05-2.64.48-2.76-1.17-.1-1.3,1.26-1.72,2.36-2.14a13.8,13.8,0,0,1,11,.6c1,.45,2.32,1.13,2.07,2.46-.33,1.73-1.85.82-2.85.78C362,554.19,360.49,553.93,359,553.75Z" transform="translate(-18445.75 -21144.15)" fill="#332c2b"/>
    <path id="Path_120411" data-name="Path 120411" d="M363.41,577.36a3.63,3.63,0,0,1-4,3.52c-2.31,0-3.88-1.28-3.68-3.66a3.86,3.86,0,0,1,7.71.14Z" transform="translate(-18445.75 -21144.15)" fill="#393436"/>
    <path id="Path_120412" data-name="Path 120412" d="M322,573.64c2.49,0,4,1.16,4.13,3.47a3.26,3.26,0,0,1-3.53,3.75c-2.26,0-3.9-1-4-3.37S319.93,573.94,322,573.64Z" transform="translate(-18445.75 -21144.15)" fill="#343139"/>
    <path id="Path_120413" data-name="Path 120413" d="M351.21,565.69c3.91-5.35,10.39-5.16,15.34.86C361.06,564.58,356.35,564.19,351.21,565.69Z" transform="translate(-18445.75 -21144.15)" fill="#634d3d"/>
    <path id="Path_120414" data-name="Path 120414" d="M337,611.16c-6.49,2.3-11.92-2.14-11.5-10.82C328.05,606.71,331.52,610.15,337,611.16Z" transform="translate(-18445.75 -21144.15)" fill="#624b3e"/>
    <path id="Path_120415" data-name="Path 120415" d="M325.57,565.81c-5.28-1.79-9.87-2.75-15.35-.59C314.56,559.8,320.92,560.13,325.57,565.81Z" transform="translate(-18445.75 -21144.15)" fill="#644739"/>
    <path id="Path_120416" data-name="Path 120416" d="M344.51,386.89c-10.9-.34-18.77-5.5-25.07-13.54-.63-.8-1.35-1.71-.71-2.65.78-1.15,1.83-.32,2.6.16,7.27,4.49,15.3,6.78,23.61,8.39,2.36.45,6.07-.22,5.36,4.48C349.66,388,346.46,386.35,344.51,386.89Z" transform="translate(-18445.75 -21144.15)" fill="#f89e71"/>
    <path id="Path_120417" data-name="Path 120417" d="M347.77,329.93c6-.19,5.73-2.86,4.15-7.19a222.538,222.538,0,0,1-7.07-24.08c3.45,4.46,4.64,9.89,6.58,15,1.24,3.23,2.22,6.56,3.23,9.88.62,2,1.72,4.26,0,6.12C352.76,331.78,350.31,330.68,347.77,329.93Z" transform="translate(-18445.75 -21144.15)" fill="#856550"/>
    <path id="Path_120418" data-name="Path 120418" d="M315.14,285.14c4.22-4.3,13.34-4.65,17-1a2.89,2.89,0,0,1,1,1.59c0,.75-.78,1-1.46,1C326.26,286.2,320.89,285.68,315.14,285.14Z" transform="translate(-18445.75 -21144.15)" fill="#4d3f40"/>
    <path id="Path_120419" data-name="Path 120419" d="M368.18,287.79c-3.42-.18-6.21-.33-9-.5-.95-.05-2.19.17-2.5-1-.4-1.54,1.07-1.95,2.05-2.29a13.73,13.73,0,0,1,9.68.08c1.33.52,3.29,1.12,2.94,2.83C370.92,289,368.84,287.52,368.18,287.79Z" transform="translate(-18445.75 -21144.15)" fill="#4b3f39"/>
    <path id="Path_120420" data-name="Path 120420" d="M323,309.88c.35-2.26,1.72-3.43,4-3.21,2.06.2,3.41,1.4,3.22,3.55a3.43,3.43,0,0,1-4,3.35C324.17,313.41,323.11,312.05,323,309.88Z" transform="translate(-18445.75 -21144.15)" fill="#343032"/>
    <path id="Path_120421" data-name="Path 120421" d="M365.86,311c-.29,2.24-1.78,3.23-4,3.16a3,3,0,0,1-3.15-3.54,3.39,3.39,0,0,1,4-3.4C364.67,307.41,365.83,308.72,365.86,311Z" transform="translate(-18445.75 -21144.15)" fill="#363234"/>
    <path id="Path_120422" data-name="Path 120422" d="M332.24,333.39c2.16,5.19,6.17,8.16,11.49,9.56C336.13,344.5,331.71,340.82,332.24,333.39Z" transform="translate(-18445.75 -21144.15)" fill="#6c5044"/>
    <path id="Path_120423" data-name="Path 120423" d="M370.61,299.22c-4.34-1.75-8.7-1.41-13.38-.57C361,293.72,367.24,294,370.61,299.22Z" transform="translate(-18445.75 -21144.15)" fill="#664e41"/>
    <path id="Path_120424" data-name="Path 120424" d="M317.92,297.52c5.68-4.34,10.35-3.83,13.56,1.44A21.71,21.71,0,0,0,317.92,297.52Z" transform="translate(-18445.75 -21144.15)" fill="#61483c"/>
    <path id="Path_120425" data-name="Path 120425" d="M660.74,640.75a13.093,13.093,0,0,1-1.92.08c-1.48-.22-3.83,1.64-4.28-.65-.41-2.14,2.16-2.49,3.89-3a2.7,2.7,0,0,1,.49-.12c3-.34,7.28-.8,7.62,2.36C666.81,642,662.46,640,660.74,640.75Z" transform="translate(-18445.75 -21144.15)" fill="#322422"/>
    <path id="Path_120426" data-name="Path 120426" d="M661.23,664.19c-.29,2.15-1.43,3.44-3.58,3.41-2.33,0-3.74-1.3-3.69-3.7a3.13,3.13,0,0,1,3.47-3.37C659.76,660.56,661,661.93,661.23,664.19Z" transform="translate(-18445.75 -21144.15)" fill="#383430"/>
    <path id="Path_120427" data-name="Path 120427" d="M698.26,663.8c-.31,2-1.45,3.38-3.52,3.3s-3.76-1.32-3.7-3.71,1.71-3.39,4-3.21S698.17,661.66,698.26,663.8Z" transform="translate(-18445.75 -21144.15)" fill="#302e34"/>
    <path id="Path_120428" data-name="Path 120428" d="M679.06,697c5.34-2.37,9.78-5,11.77-11C692.11,694,687.64,698.13,679.06,697Z" transform="translate(-18445.75 -21144.15)" fill="#603c2c"/>
    <path id="Path_120429" data-name="Path 120429" d="M706.66,653.76c-5.78-2.17-10.28-2.35-15.58.23C695.39,648,701.37,647.86,706.66,653.76Z" transform="translate(-18445.75 -21144.15)" fill="#684d3f"/>
    <path id="Path_120430" data-name="Path 120430" d="M667,653.35c-4.81-1.75-9.23-1.8-14.77.24C657.56,647.94,663.33,648.08,667,653.35Z" transform="translate(-18445.75 -21144.15)" fill="#61473c"/>
  </g>
</svg>
