<svg xmlns="http://www.w3.org/2000/svg" width="181.314" height="34.052" viewBox="0 0 181.314 34.052">
  <g id="Logo_joined_words" transform="translate(-2.685 -10.34)">
    <path id="Path_120326" data-name="Path 120326" d="M4.8,26.78c-1.069-4.446-1.23-9.994,1.89-13.686,2.815-3.22,6.361-3.723,9.714-.944a8.708,8.708,0,0,1,2.727,3.772,15.316,15.316,0,0,1,.712,2.9c.288,1.871.446,3.7.635,5.566.279,2.726.585,5.471.994,8.17.435,2.542.768,5.22,2.16,7.311a5.131,5.131,0,0,0,3.7,2.117l.281.007c.028,0-.025,0-.012,0h.021a6.312,6.312,0,0,0,2.85-1.086c.063-.04.189-.126.248-.173.136-.1.353-.265.479-.375a5.978,5.978,0,0,0,1.543-2.126,29.011,29.011,0,0,0,2.1-7.712,101.419,101.419,0,0,0,.987-13.74c.9,6.128,1.628,20.857-3.187,25.246a8.818,8.818,0,0,1-4.835,2.349,7.234,7.234,0,0,1-4.744-1.528c-2.438-1.835-3.222-4.985-3.79-7.8-.478-2.528-.775-5.095-1.041-7.651-.289-2.748-.416-5.513-.738-8.228A8.067,8.067,0,0,0,15.583,14.3c-1.948-2.152-4.377-2.884-6.833-1a8.37,8.37,0,0,0-2.47,2.867C4.648,19.387,4.5,23.232,4.8,26.78Z" fill="#f8cd46"/>
    <path id="Path_120327" data-name="Path 120327" d="M5.273,33.324a2.612,2.612,0,1,0-2.589-2.612A2.6,2.6,0,0,0,5.273,33.324Z" fill="#f8cd46"/>
    <path id="Path_120328" data-name="Path 120328" d="M35.459,15.567a2.612,2.612,0,1,0-2.589-2.612A2.6,2.6,0,0,0,35.459,15.567Z" fill="#f8cd46"/>
    <path id="Path_120329" data-name="Path 120329" d="M19.718,31.038a31.706,31.706,0,0,1,5.072-4.186c.732-.5,1.494-.99,2.251-1.457A47.373,47.373,0,0,1,31.5,27.729a26.685,26.685,0,0,1,3.753,2.63c-.386-.061-.763-.145-1.134-.236A39.478,39.478,0,0,1,26.7,27.361l.906-.05q-.926.564-1.877,1.088A31.306,31.306,0,0,1,19.718,31.038Z" fill="#f8cd46"/>
    <path id="Path_120330" data-name="Path 120330" d="M62.767,27.7H54.733v7.214H52.674V19h2.059v6.986h8.034V19h2.059V34.914H62.767Z" fill="#f8cd46"/>
    <path id="Path_120331" data-name="Path 120331" d="M73.72,34.923c-3.508,0-6.178-2.512-6.178-6.484a6.271,6.271,0,1,1,12.538,0A6.179,6.179,0,0,1,73.72,34.923Zm0-1.827c2.151,0,4.255-1.484,4.255-4.658,0-3.151-2.059-4.635-4.187-4.635-2.172,0-4.142,1.484-4.142,4.635C69.646,31.612,71.569,33.1,73.72,33.1Z" fill="#f8cd46"/>
    <path id="Path_120332" data-name="Path 120332" d="M100.7,27.662C100.7,25.1,99.34,23.8,97.3,23.8c-2.082,0-3.508,1.347-3.508,4.041v6.9H91.757V27.662c0-2.557-1.357-3.858-3.395-3.858-2.082,0-3.508,1.347-3.508,4.041v6.9H82.795V22.228h2.059v1.8A4.473,4.473,0,0,1,88.77,22a4.663,4.663,0,0,1,4.549,2.786A4.588,4.588,0,0,1,97.709,22c2.829,0,5.023,1.781,5.023,5.365V34.74h-2.037V27.662Z" fill="#f8cd46"/>
    <path id="Path_120333" data-name="Path 120333" d="M111.469,34.923c-3.53,0-6.133-2.512-6.133-6.484,0-3.95,2.512-6.439,6.133-6.439a5.71,5.71,0,0,1,5.951,5.982,11.408,11.408,0,0,1-.068,1.255H107.44a3.913,3.913,0,0,0,4.029,3.927,3.408,3.408,0,0,0,3.485-2.306h2.217A5.581,5.581,0,0,1,111.469,34.923Zm-4.007-7.375h7.831a3.654,3.654,0,0,0-3.915-3.791A3.858,3.858,0,0,0,107.462,27.548Z" fill="#f8cd46"/>
    <path id="Path_120334" data-name="Path 120334" d="M126.18,35.279c-3.169,0-5.409-1.781-5.454-4.407h2.195a2.93,2.93,0,0,0,3.259,2.648c1.991,0,3.168-1.141,3.168-2.648,0-4.292-8.531-1.552-8.531-7.466,0-2.626,2.1-4.407,5.228-4.407,3.01,0,4.978,1.666,5.228,4.086h-2.264a2.862,2.862,0,0,0-3.056-2.306c-1.7-.045-3.032.844-3.032,2.557,0,4.11,8.51,1.552,8.51,7.442C131.429,33.041,129.6,35.279,126.18,35.279Z" fill="#f8cd46"/>
    <path id="Path_120335" data-name="Path 120335" d="M134.462,18h2.059v6.187a4.655,4.655,0,0,1,4.1-2.032c2.761,0,4.957,1.781,4.957,5.365V34.9h-2.038V27.817c0-2.557-1.38-3.858-3.463-3.858-2.1,0-3.553,1.324-3.553,4.019V34.9h-2.059Z" fill="#f8cd46"/>
    <path id="Path_120336" data-name="Path 120336" d="M154.06,22a5.138,5.138,0,0,1,4.618,2.489V22.2h2.082V34.717h-2.082V32.388a5.17,5.17,0,0,1-4.64,2.534c-3.3,0-5.861-2.626-5.861-6.508C148.175,24.512,150.734,22,154.06,22Zm.406,1.8c-2.263,0-4.186,1.666-4.186,4.611s1.923,4.68,4.186,4.68,4.21-1.712,4.21-4.658C158.676,25.539,156.73,23.8,154.466,23.8Z" fill="#f8cd46"/>
    <path id="Path_120337" data-name="Path 120337" d="M166.3,34.74h-2.059V22.228H166.3V24.26A4.172,4.172,0,0,1,170.309,22v2.146h-.544c-1.969,0-3.463.891-3.463,3.791v6.8Z" fill="#f8cd46"/>
    <path id="Path_120338" data-name="Path 120338" d="M178.048,34.923c-3.53,0-6.133-2.512-6.133-6.484,0-3.95,2.512-6.439,6.133-6.439A5.71,5.71,0,0,1,184,27.982a11.41,11.41,0,0,1-.068,1.255h-9.912a3.913,3.913,0,0,0,4.029,3.927,3.408,3.408,0,0,0,3.485-2.306h2.217A5.58,5.58,0,0,1,178.048,34.923Zm-4.006-7.375h7.831a3.654,3.654,0,0,0-3.915-3.791A3.858,3.858,0,0,0,174.042,27.548Z" fill="#f8cd46"/>
  </g>
</svg>
